# xmcd
# 
# Track frame offsets:
#     187
#     13272
#     30797
#     39730
#     53915
#     79852
#     98587
#     119312
#     141017
#     163437
#     188512
#     232707
# 
# Disc length: 3370
# 
# Revision: 1
# Processed by: cddbd v1.5.2PL0 Copyright (c) Steve Scherf et al.
# Submitted via: BonkEnc v1.0.6
# 
DISCID=8d0d280c
DTITLE=Guitar Workshop - B.B. King and Sons, Live.
DYEAR=1990
DGENRE=Blues
TTITLE0=Back-Up Musicians - Theme of Unusual - Blue Monk
TTITLE1=B.B. King - Sweet Little Angel
TTITLE2=B.B. King - How Blue Can You Get
TTITLE3=B.B. King - Paying The Cost to be Loss
TTITLE4=B.B. King - Guess Who
TTITLE5=B.B. King with 山岸潤史 - Double Deals
TTITLE6=B.B. King with マルタ - Everything Needs Love
TTITLE7=B.B. King with マルタ - Let The Good Times Roll
TTITLE8=B.B. King with 上田正樹、梅津和時 - Feelin' Fine
TTITLE9=B.B. King with 野呂一生 - The Thrill Is Gone
TTITLE10=B.B. King with All Musicians - Caldonia
TTITLE11=B.B. King with 山岸潤史 - Darlin' You Know I Love You
EXTD=
EXTT0=
EXTT1=
EXTT2=
EXTT3=
EXTT4=
EXTT5=
EXTT6=
EXTT7=
EXTT8=
EXTT9=
EXTT10=
EXTT11=
PLAYORDER=
